# xmcd
#
# Track frame offsets:
# 150
# 22883
# 36458
# 55350
# 70887
# 89941
# 105755
# 121192
# 137021
# 151428
# 171790
#
# Disc length: 2477 seconds
#
#
# Revision: 0
# Processed by: cddbd v1.5.2PL0 Copyright (c) Steve Scherf et al.
# Submitted via: FreeRIP 2.96 
#
DISCID=9109ab0b
DTITLE=the ultimat bluegrass tribute - pickin on johnny cash
DYEAR=2006
DGENRE=Bluegrass
TTITLE0=I walk the line
TTITLE1=hey porter
TTITLE2=folsom prison blues
TTITLE3=I still miss someone
TTITLE4=big river
TTITLE5=ring of fire
TTITLE6=get rhythm
TTITLE7=dont take your guns to town
TTITLE8=give my love to rose
TTITLE9=mean eyed cat
TTITLE10=meet me in heaven
EXTD=
EXTT0=
EXTT1=
EXTT2=
EXTT3=
EXTT4=
EXTT5=
EXTT6=
EXTT7=
EXTT8=
EXTT9=
EXTT10=
PLAYORDER=
